<svg xmlns="http://www.w3.org/2000/svg" height="24px" viewBox="0 -960 960 960" width="24px" fill="#e3e3e3"><path d="M659.76-132q-36.76 0-62.26-25.67Q572-183.33 572-220q0-6 6-31L288-424q-12 15-30.14 23.5Q239.73-392 219-392q-36.25 0-61.62-26Q132-444 132-480t25.38-62q25.37-26 61.62-26 20.73 0 38.86 8.5Q276-551 288-536l290-172q-3-8-4.5-16t-1.5-16q0-36.67 25.74-62.33Q623.47-828 660.24-828q36.76 0 62.26 25.74 25.5 25.73 25.5 62.5 0 36.76-25.67 62.26Q696.67-652 660-652q-21 0-38.5-9T592-685L302-512q3 8 4.5 16t1.5 16q0 8-1.5 16t-4.5 16l290 173q12-15 29.5-24t38.5-9q36.67 0 62.33 25.74Q748-256.53 748-219.76q0 36.76-25.74 62.26-25.73 25.5-62.5 25.5Zm.24-28q25.5 0 42.75-17.25T720-220q0-25.5-17.25-42.75T660-280q-25.5 0-42.75 17.25T600-220q0 25.5 17.25 42.75T660-160ZM219-420q25.93 0 43.46-17.25Q280-454.5 280-480t-17.54-42.75Q244.93-540 219-540q-25.07 0-42.04 17.25Q160-505.5 160-480t16.96 42.75Q193.93-420 219-420Zm441-260q25.5 0 42.75-17.25T720-740q0-25.5-17.25-42.75T660-800q-25.5 0-42.75 17.25T600-740q0 25.5 17.25 42.75T660-680Zm0 460ZM220-480Zm440-260Z"/></svg>